<svg width="512" height="512" viewBox="0 0 512 512" fill="none" xmlns="http://www.w3.org/2000/svg">
<g clip-path="url(#clip0)">
<path d="M489.195 56.4297H456.895V31.5625C456.895 21.8789 449.016 14 439.332 14H72.6641C62.9805 14 55.1016 21.8789 55.1016 31.5625V56.4297H22.8047C10.2305 56.4297 0 66.6602 0 79.2383V401.305C0 411.066 7.94141 419.008 17.7031 419.008H117.707C121.852 419.008 125.207 415.652 125.207 411.508C125.207 407.367 121.852 404.008 117.707 404.008H17.7031C16.2148 404.008 15 402.797 15 401.305V358.07H497V401.305C497 402.797 495.785 404.008 494.297 404.008H150.371C146.227 404.008 142.871 407.367 142.871 411.508C142.871 415.652 146.227 419.008 150.371 419.008H209.176C206.16 434.98 200.176 454.91 188.316 469.875C184.102 475.195 183.328 482.313 186.297 488.453C189.297 494.66 195.434 498.516 202.312 498.516H309.684C316.562 498.516 322.699 494.66 325.703 488.453C328.672 482.313 327.895 475.195 323.684 469.875C311.836 454.926 305.848 435.031 302.824 419.008H494.297C504.059 419.008 512 411.066 512 401.305V219.746C512 215.605 508.645 212.246 504.5 212.246C500.355 212.246 497 215.605 497 219.746V343.07H456.895V71.4297H489.195C493.496 71.4297 497 74.9336 497 79.2344V121.09C497 125.23 500.355 128.59 504.5 128.59C508.645 128.59 512 125.23 512 121.09V79.2383C512 66.6602 501.77 56.4297 489.195 56.4297V56.4297ZM311.926 479.191C312.742 480.223 312.527 481.246 312.199 481.922C311.969 482.398 311.258 483.516 309.684 483.516H202.312C200.742 483.516 200.035 482.398 199.801 481.922C199.477 481.246 199.258 480.223 200.074 479.191C214.5 460.984 221.25 437.164 224.414 419.008H287.586C290.762 437.227 297.52 461.008 311.926 479.191V479.191ZM441.895 79.2461V128.992H70.1016V79.2461H441.895ZM70.1016 222.543L108.477 184.168C109.473 183.172 111.102 183.168 112.102 184.168L160.379 232.445C163.309 235.375 168.055 235.375 170.984 232.445L203.531 199.91C204.527 198.91 206.156 198.91 207.156 199.91L262.062 254.816H70.1016V222.543ZM283.277 254.816L246.5 218.039C254.266 208.152 266.02 202.367 278.812 202.367C301.496 202.367 319.953 220.824 319.953 243.508C319.953 247.379 319.418 251.168 318.375 254.816H283.277ZM278.812 187.367C261.957 187.367 246.422 194.719 235.832 207.367L217.766 189.301C210.918 182.453 199.773 182.453 192.926 189.301L165.684 216.535L122.707 173.563C115.859 166.711 104.719 166.715 97.8672 173.563L70.0977 201.328V143.992H441.895V254.816H333.805C334.559 251.121 334.953 247.344 334.953 243.508C334.953 212.551 309.77 187.367 278.812 187.367ZM441.895 31.5625V64.2461H183.641V29H439.332C440.746 29 441.895 30.1524 441.895 31.5625ZM72.6641 29H168.641V64.2461H70.1016V31.5625C70.1016 30.1524 71.25 29 72.6641 29ZM15 79.2383C15 74.9336 18.5 71.4336 22.8047 71.4336H55.1016V343.07H15V79.2383ZM70.1016 343.07V269.816H441.895V343.07H70.1016Z" fill="white"/>
<path d="M504.5 146.25C500.355 146.25 497 149.605 497 153.75V187.086C497 191.227 500.355 194.586 504.5 194.586C508.645 194.586 512 191.227 512 187.086V153.75C512 149.605 508.645 146.25 504.5 146.25Z" fill="white"/>
<path d="M121.266 209.953C118.336 207.023 113.59 207.023 110.66 209.953C107.73 212.883 107.73 217.633 110.66 220.559L125.676 235.578C127.141 237.039 129.062 237.773 130.98 237.773C132.898 237.773 134.82 237.043 136.285 235.578C139.215 232.648 139.215 227.898 136.285 224.973L121.266 209.953Z" fill="white"/>
<path d="M100.863 108.781H223.051C227.195 108.781 230.551 105.422 230.551 101.281C230.551 97.1367 227.195 93.7812 223.051 93.7812H100.863C96.7188 93.7812 93.3633 97.1367 93.3633 101.281C93.3633 105.422 96.7188 108.781 100.863 108.781Z" fill="white"/>
<path d="M275.715 108.781H292.836C296.977 108.781 300.336 105.422 300.336 101.281C300.336 97.1367 296.977 93.7812 292.836 93.7812H275.715C271.57 93.7812 268.215 97.1367 268.215 101.281C268.215 105.422 271.57 108.781 275.715 108.781V108.781Z" fill="white"/>
<path d="M315.148 108.781H332.27C336.41 108.781 339.77 105.422 339.77 101.281C339.77 97.1367 336.41 93.7812 332.27 93.7812H315.148C311.004 93.7812 307.645 97.1367 307.645 101.281C307.645 105.422 311.004 108.781 315.148 108.781Z" fill="white"/>
<path d="M354.578 108.781H371.699C375.844 108.781 379.199 105.422 379.199 101.281C379.199 97.1367 375.844 93.7812 371.699 93.7812H354.578C350.434 93.7812 347.078 97.1367 347.078 101.281C347.078 105.422 350.437 108.781 354.578 108.781Z" fill="white"/>
<path d="M394.012 108.781H411.133C415.273 108.781 418.633 105.422 418.633 101.281C418.633 97.1367 415.273 93.7812 411.133 93.7812H394.012C389.867 93.7812 386.512 97.1367 386.512 101.281C386.512 105.422 389.867 108.781 394.012 108.781Z" fill="white"/>
<path d="M98.7227 54.4492H98.7695C102.891 54.4492 106.242 51.1211 106.27 46.9922C106.293 42.8516 102.953 39.4727 98.8125 39.4492H98.7305C98.7148 39.4492 98.6992 39.4492 98.6836 39.4492C94.5625 39.4492 91.25 42.7774 91.2266 46.9063C91.2031 51.0469 94.582 54.4258 98.7227 54.4492Z" fill="white"/>
<path d="M120.18 54.5117C124.324 54.5117 127.68 51.1524 127.68 47.0117C127.68 42.8711 124.324 39.5117 120.18 39.5117H120.098C115.953 39.5117 112.641 42.8711 112.641 47.0117C112.641 51.1524 116.035 54.5117 120.18 54.5117Z" fill="white"/>
<path d="M141.547 54.5742H141.594C145.715 54.5742 149.07 51.2461 149.094 47.1172C149.117 42.9766 145.781 39.5977 141.637 39.5742H141.555C141.539 39.5742 141.523 39.5742 141.508 39.5742C137.387 39.5742 134.074 42.9024 134.051 47.0313C134.027 51.1719 137.406 54.5508 141.547 54.5742Z" fill="white"/>
<path d="M265.055 388.539C269.199 388.539 272.555 385.18 272.555 381.039C272.555 376.895 269.199 373.539 265.055 373.539H246.941C242.797 373.539 239.441 376.895 239.441 381.039C239.441 385.18 242.797 388.539 246.941 388.539H265.055Z" fill="white"/>
<path d="M186.41 285.324H126.027C116.34 285.324 108.461 293.203 108.461 302.891V311.609C108.461 321.297 116.34 329.176 126.027 329.176H186.41C196.098 329.176 203.973 321.297 203.973 311.609V302.891C203.977 293.203 196.098 285.324 186.41 285.324V285.324ZM188.977 311.609C188.977 313.023 187.824 314.176 186.414 314.176H126.027C124.613 314.176 123.465 313.023 123.465 311.609V302.891C123.465 301.477 124.613 300.324 126.027 300.324H186.414C187.824 300.324 188.977 301.477 188.977 302.891V311.609Z" fill="white"/>
<path d="M385.969 285.324H325.582C315.898 285.324 308.02 293.203 308.02 302.891V311.609C308.02 321.297 315.898 329.176 325.582 329.176H385.969C395.656 329.176 403.531 321.297 403.531 311.609V302.891C403.531 293.203 395.652 285.324 385.969 285.324V285.324ZM388.531 311.609C388.531 313.023 387.383 314.176 385.969 314.176H325.582C324.172 314.176 323.02 313.023 323.02 311.609V302.891C323.02 301.477 324.172 300.324 325.582 300.324H385.969C387.383 300.324 388.531 301.477 388.531 302.891V311.609Z" fill="white"/>
<path d="M255.996 280.629C251.855 280.629 248.496 283.984 248.496 288.129V324.359C248.496 328.5 251.855 331.859 255.996 331.859C260.141 331.859 263.496 328.5 263.496 324.359V288.129C263.496 283.984 260.141 280.629 255.996 280.629V280.629Z" fill="white"/>
<path d="M348.926 188.949H405.48C409.621 188.949 412.98 185.59 412.98 181.449C412.98 177.305 409.621 173.949 405.48 173.949H348.926C344.781 173.949 341.426 177.305 341.426 181.449C341.426 185.59 344.781 188.949 348.926 188.949Z" fill="white"/>
<path d="M405.48 198.773H394.012C389.867 198.773 386.512 202.129 386.512 206.273C386.512 210.414 389.867 213.773 394.012 213.773H405.48C409.621 213.773 412.98 210.414 412.98 206.273C412.98 202.129 409.621 198.773 405.48 198.773Z" fill="white"/>
<path d="M405.48 215.547H394.012C389.867 215.547 386.512 218.906 386.512 223.047C386.512 227.188 389.867 230.547 394.012 230.547H405.48C409.621 230.547 412.98 227.188 412.98 223.047C412.98 218.906 409.621 215.547 405.48 215.547Z" fill="white"/>
</g>
<defs>
<clipPath id="clip0">
<rect width="512" height="512" fill="white"/>
</clipPath>
</defs>
</svg>
