<?xml version="1.0" encoding="utf-8"?>
<!-- Generator: Adobe Illustrator 19.2.1, SVG Export Plug-In . SVG Version: 6.00 Build 0)  -->
<svg version="1.1" id="Layer_1" xmlns="http://www.w3.org/2000/svg" xmlns:xlink="http://www.w3.org/1999/xlink" x="0px" y="0px"
	 viewBox="0 0 823.6 597" style="enable-background:new 0 0 823.6 597;" xml:space="preserve">
<style type="text/css">
	.st0{opacity:0.18;fill:#48ACE3;enable-background:new    ;}
	.st1{fill:#737373;}
	.st2{fill:#2D2D2D;}
	.st3{opacity:0.61;fill:url(#SVGID_1_);enable-background:new    ;}
	.st4{opacity:0;fill:#737373;}
	.st5{fill:#FFFFFF;}
	.st6{fill:url(#SVGID_2_);}
	.st7{fill:url(#SVGID_3_);}
	.st8{fill:url(#SVGID_4_);}
	.st9{opacity:0.15;fill:#2E2E2E;enable-background:new    ;}
	.st10{fill:#48ACE3;}
	.st11{opacity:0.22;fill:#FFFFFF;enable-background:new    ;}
	.st12{fill:#70BEE9;}
	.st13{fill:#29678E;}
	.st14{fill:#3B9AC4;}
</style>
<title>6. New Messages</title>
<path class="st0" d="M131.3,125c-24.3,5.2-49.6,10.8-69.2,26.2c-16.5,13-42.2,37-50,56.5c-33,82.4,4.3,182.6,76.7,233.9
	c34.1,24.1,76.5,35.8,107.1,64.2c19.4,18,32.9,41.7,53.5,58.2c30.1,24.1,70.7,29.4,109.2,32c26.7,1.8,54.5,2.6,79.3-7.6
	c17.9-7.3,33.1-19.9,48-32.3l98.7-82.4c15.9-13.2,30.7-34.3,51.3-34.2c185.9,1.3,198.4-217.4-86.9-314.3
	c-25.1-8.5-42.4-32.3-66-44.5c-48.8-25.2-104.9-17-154.1,0.4C266.5,103.2,196.1,111.2,131.3,125z"/>
<path class="st1" d="M617.3,200.6v260.6c0,13.7-11.1,24.9-24.9,24.9l0,0H202.8c-13.7,0-24.9-11.1-24.9-24.9l0,0V200.6
	c0-13.7,11.1-24.9,24.8-24.9h389.7C606.2,175.7,617.3,186.8,617.3,200.6C617.3,200.6,617.3,200.6,617.3,200.6z"/>
<path class="st2" d="M610.6,183.7H184l3.5-2.6c0.2-0.1,0.3-0.3,0.5-0.4L390.9,25.1l6.4-4.9l206.5,158.3L610.6,183.7z"/>
<path class="st2" d="M617.3,200.6l-5.2,3.8l0,0l-37.8,27.4L390.9,364.6L214.4,228.7l-36.5-28.1l0.5-4.8c0.9-4.5,3-8.7,6.2-12.1
	c0.9-1,1.8-1.8,2.9-2.6c0.2-0.1,0.3-0.3,0.5-0.4c4.3-3.2,9.5-4.9,14.8-4.9h389.7c12.8,0,23.5,9.7,24.8,22.5
	C617.3,199,617.3,199.8,617.3,200.6z"/>
<linearGradient id="SVGID_1_" gradientUnits="userSpaceOnUse" x1="184.4686" y1="380.6232" x2="188.2986" y2="370.2132" gradientTransform="matrix(1 0 0 1 -0.33 -194)">
	<stop  offset="0.36" style="stop-color:#00272E"/>
	<stop  offset="0.75" style="stop-color:#3F80A1;stop-opacity:0.25"/>
	<stop  offset="1" style="stop-color:#69B9EB;stop-opacity:0"/>
</linearGradient>
<path class="st3" d="M187.4,181c-1,0.8-2,1.7-2.9,2.6H184L187.4,181z"/>
<path class="st4" d="M617.3,200.6l-5.2,3.8l0,0l-37.8,27.4L390.9,364.6L214.4,228.7l-36.5-28.1l0.5-4.8c1.2-5.8,4.4-11.1,9.1-14.8
	l0.5-0.4L390.9,25.1l6.4-4.9l206.5,158.3c7.6,3.9,12.6,11.3,13.5,19.8C617.3,199,617.3,199.8,617.3,200.6z"/>
<path class="st5" d="M574.3,181.3v50.4l-67.7,49L491.1,292l-100.2,72.6L296.6,292L282,280.8l-67.6-52v-47.4
	c0-8.2,6.6-14.8,14.8-14.8c0,0,0,0,0,0h330.4C567.7,166.6,574.3,173.2,574.3,181.3z"/>
<linearGradient id="SVGID_2_" gradientUnits="userSpaceOnUse" x1="405.8424" y1="448.1695" x2="332.8424" y2="98.1695" gradientTransform="matrix(1 0 0 -1 0 598)">
	<stop  offset="0" style="stop-color:#000000;stop-opacity:0"/>
	<stop  offset="0.91" style="stop-color:#000000;stop-opacity:0.8"/>
	<stop  offset="1" style="stop-color:#000000"/>
</linearGradient>
<path class="st6" d="M524.7,225.5h-267c-3.1,0-5.6-2.5-5.6-5.6l0,0c0-3.1,2.5-5.6,5.6-5.6h267c3.1,0,5.6,2.5,5.6,5.6l0,0
	C530.3,223,527.8,225.5,524.7,225.5z"/>
<linearGradient id="SVGID_3_" gradientUnits="userSpaceOnUse" x1="412.4897" y1="446.7901" x2="339.4897" y2="96.79" gradientTransform="matrix(1 0 0 -1 0 598)">
	<stop  offset="0" style="stop-color:#000000;stop-opacity:0"/>
	<stop  offset="0.91" style="stop-color:#000000;stop-opacity:0.8"/>
	<stop  offset="1" style="stop-color:#000000"/>
</linearGradient>
<path class="st7" d="M524.7,258.8h-267c-3.1,0-5.6-2.5-5.6-5.6l0,0c0-3.1,2.5-5.6,5.6-5.6h267c3.1,0,5.6,2.5,5.6,5.6l0,0
	C530.3,256.2,527.8,258.8,524.7,258.8z"/>
<linearGradient id="SVGID_4_" gradientUnits="userSpaceOnUse" x1="420.974" y1="445.0092" x2="347.974" y2="95.0091" gradientTransform="matrix(1 0 0 -1 0 598)">
	<stop  offset="0" style="stop-color:#000000;stop-opacity:0"/>
	<stop  offset="0.91" style="stop-color:#000000;stop-opacity:0.8"/>
	<stop  offset="1" style="stop-color:#000000"/>
</linearGradient>
<polygon class="st8" points="506.6,280.8 491.1,292 296.6,292 282,280.8 "/>
<polygon class="st9" points="390.9,364.6 228,486 557.1,486 "/>
<path class="st10" d="M250.4,90.2c-8.2-17.6-39-14.7-39-14.7c19-11.2,15.4-39.7,15.1-41.4l0,0c8.3,24.8,37,19.3,39.6,18.8
	C247.1,57.6,250.4,90.2,250.4,90.2z"/>
<path class="st10" d="M197,126.3c-5.2-11.2-24.8-9.3-24.8-9.3l0,0c12.4-7.4,9.6-26.3,9.6-26.3v0.1c5.3,15.7,23.5,12.2,25.1,11.9
	C194.9,105.6,197,126.3,197,126.3z"/>
<path class="st11" d="M215.8,74.1l-4.4,1.4c19-11.2,15.4-39.7,15.1-41.4c0.3,1.3,4.7,20.1,2.3,26.3
	C225.9,68.2,215.8,74.1,215.8,74.1z"/>
<path class="st10" d="M727.7,479c-6.4-13.7-30.4-11.4-30.4-11.4c14.8-8.7,12-30.9,11.8-32.2l0,0c6.5,19.3,28.8,15.1,30.8,14.6
	C725.1,453.7,727.7,479,727.7,479z"/>
<path class="st11" d="M700.8,466.5l-3.4,1.1c14.8-8.7,12-30.9,11.8-32.2c0.2,1.1,3.7,15.7,1.8,20.5
	C708.6,461.9,700.8,466.5,700.8,466.5z"/>
<path class="st10" d="M683.5,502.7c-4.9-10.5-23.2-8.8-23.2-8.8c11.3-6.7,9.2-23.6,9-24.6l0,0c5,14.8,22.1,11.5,23.6,11.2
	C681.6,483.3,683.5,502.7,683.5,502.7z"/>
<path class="st11" d="M662.9,493.1l-2.6,0.9c11.3-6.7,9.2-23.6,9-24.6c0.2,0.8,2.8,12,1.4,15.7C668.9,489.6,662.9,493.1,662.9,493.1
	z"/>
<path class="st11" d="M184.4,108.4c-2.3,3.2-11.5,8.2-12.2,8.5c12.4-7.4,9.6-26.3,9.6-26.3v0.1C182.3,92,186.7,105.3,184.4,108.4z"
	/>
<polygon class="st11" points="178.6,214.3 382.3,371 390.9,364.6 177.9,200.6 "/>
<polygon class="st11" points="397.6,370 617.3,211.8 617.3,201 390.9,365 "/>
<g>
	<g>
		<path class="st12" d="M526.6,456.6c-0.7,0-1.3-0.2-1.3-0.9c0-0.7,0.6-1.1,1.3-1.1c0.8,0,1.5,0.1,2.3,0.1c0.7,0,1.3,0.6,1.3,1.3
			c0,0.7-0.6,0.9-1.3,1C528.1,456.9,527.3,456.6,526.6,456.6C526.6,456.6,526.6,456.6,526.6,456.6z M521.3,456.6
			C521.3,456.6,521.3,456.6,521.3,456.6c-0.8,0-1.5,0.3-2.3,0.3c-0.7,0-1.3-0.4-1.2-1.1c0-0.7,0.6-1.2,1.3-1.2
			c0.8,0,1.5,0.1,2.3,0.1c0.7,0,1.3,0.3,1.2,1C522.6,456.3,522,456.6,521.3,456.6z M534.1,456.6c-0.7,0-1.2-0.3-1.3-0.9
			c0-0.7,0.5-1.1,1.2-1.1c0.8,0,1.5,0,2.3,0c0.7,0,1.3,0.6,1.3,1.3c0,0.7-0.5,1-1.2,1C535.7,456.8,534.9,456.6,534.1,456.6
			C534.1,456.6,534.1,456.6,534.1,456.6z M513.8,457C513.8,457,513.7,457,513.8,457c-0.8,0-1.6-0.1-2.3-0.1c-0.7,0-1.2-0.6-1.2-1.3
			c0-0.7,0.6-1.2,1.3-1.2c0.7,0,1.5,0.1,2.3,0.1c0.7,0,1.2,0.6,1.2,1.3C515,456.5,514.4,457,513.8,457z M541.6,456.9
			c-0.7,0-1.2-0.5-1.3-1.2c0-0.7,0.5-1.3,1.2-1.3c0.7,0,1.5-0.1,2.3-0.1c0.7,0,1.3,0.5,1.3,1.2c0,0.7-0.5,1.3-1.2,1.3
			C543.2,456.8,542.5,456.8,541.6,456.9C541.7,456.9,541.7,456.9,541.6,456.9z M506.2,456.6C506.2,456.6,506.2,456.6,506.2,456.6
			c-0.8,0-1.6-0.1-2.3-0.2c-0.7,0-1.2-0.7-1.2-1.3c0-0.7,0.7-1.2,1.3-1.2c0.7,0.1,1.5,0.1,2.2,0.1c0.7,0,1.2,0.6,1.2,1.3
			C507.5,456.1,506.9,456.6,506.2,456.6z M549.2,456.4c-0.7,0-1.2-0.5-1.3-1.2c0-0.7,0.5-1.3,1.2-1.3c0.7-0.1,1.5-0.1,2.2-0.2
			c0.7-0.1,1.3,0.5,1.4,1.2c0.1,0.7-0.5,1.3-1.2,1.4C550.8,456.3,550,456.4,549.2,456.4C549.2,456.4,549.2,456.4,549.2,456.4z
			 M498.7,456.1c0,0-0.1,0-0.1,0c-0.8-0.1-1.5-0.1-2.3-0.2c-0.7-0.1-1.2-0.7-1.1-1.4c0.1-0.7,0.7-1.2,1.4-1.1
			c0.7,0.1,1.5,0.1,2.2,0.2c0.7,0.1,1.2,0.7,1.1,1.4C499.9,455.6,499.4,456.1,498.7,456.1z M556.7,455.8c-0.6,0-1.2-0.5-1.3-1.1
			c-0.1-0.7,0.4-1.3,1.1-1.4c0.7-0.1,1.5-0.1,2.2-0.2c0.7-0.1,1.3,0.4,1.4,1.1c0.1,0.7-0.4,1.3-1.1,1.4c-0.8,0.1-1.5,0.1-2.3,0.2
			C556.8,455.8,556.7,455.8,556.7,455.8z M491.2,455.3c0,0-0.1,0-0.1,0c-0.8-0.1-1.5-0.2-2.3-0.3c-0.7-0.1-1.2-0.7-1.1-1.4
			c0.1-0.7,0.7-1.2,1.4-1.1c0.7,0.1,1.5,0.2,2.2,0.3c0.7,0.1,1.2,0.7,1.1,1.4C492.4,454.8,491.9,455.3,491.2,455.3z M564.2,455.1
			c-0.6,0-1.2-0.5-1.3-1.1c-0.1-0.7,0.4-1.3,1.1-1.4c0.7-0.1,1.5-0.2,2.2-0.3c0.7-0.1,1.3,0.4,1.4,1.1c0.1,0.7-0.4,1.3-1.1,1.4
			c-0.8,0.1-1.5,0.2-2.3,0.3C564.3,455.1,564.2,455.1,564.2,455.1z M483.8,454.4c-0.1,0-0.1,0-0.2,0c-0.7-0.1-1.5-0.2-2.2-0.3
			c-0.7-0.1-1.2-0.7-1.1-1.4c0.1-0.7,0.7-1.2,1.4-1.1c0.7,0.1,1.5,0.2,2.2,0.3c0.7,0.1,1.2,0.7,1.1,1.4
			C484.9,453.9,484.4,454.4,483.8,454.4z M571.7,454.2c-0.6,0-1.2-0.5-1.3-1.1c-0.1-0.7,0.4-1.3,1.1-1.4c0.7-0.1,1.5-0.2,2.2-0.3
			c0.7-0.1,1.3,0.4,1.4,1.1c0.1,0.7-0.4,1.3-1.1,1.4c-0.7,0.1-1.5,0.2-2.2,0.3C571.8,454.2,571.7,454.2,571.7,454.2z M476.3,453.3
			c-0.1,0-0.1,0-0.2,0c-0.7-0.1-1.5-0.2-2.2-0.4c-0.7-0.1-1.1-0.8-1-1.5c0.1-0.7,0.8-1.2,1.5-1c0.7,0.1,1.5,0.3,2.2,0.4
			c0.7,0.1,1.2,0.8,1,1.5C477.4,452.8,476.9,453.3,476.3,453.3z M579.1,453.1c-0.6,0-1.2-0.4-1.2-1.1c-0.1-0.7,0.4-1.3,1.1-1.4
			l2.2-0.3c0.7-0.1,1.3,0.4,1.4,1.1c0.1,0.7-0.4,1.3-1.1,1.4l-2.2,0.3C579.3,453.1,579.2,453.1,579.1,453.1z M468.9,451.9
			c-0.1,0-0.2,0-0.2,0c-0.7-0.1-1.5-0.3-2.2-0.4c-0.7-0.1-1.1-0.8-1-1.5c0.1-0.7,0.8-1.1,1.5-1c0.7,0.1,1.5,0.3,2.2,0.4
			c0.7,0.1,1.1,0.8,1,1.5C470,451.5,469.5,451.9,468.9,451.9z M586.6,451.9c-0.6,0-1.1-0.4-1.2-1c-0.1-0.7,0.3-1.3,1-1.5
			c0.7-0.1,1.5-0.3,2.2-0.4c0.7-0.1,1.3,0.3,1.5,1c0.1,0.7-0.3,1.3-1,1.5c-0.7,0.1-1.5,0.3-2.2,0.4
			C586.7,451.9,586.6,451.9,586.6,451.9z M594,450.5c-0.6,0-1.1-0.4-1.2-1c-0.1-0.7,0.3-1.4,1-1.5c0.7-0.2,1.5-0.3,2.2-0.5
			c0.7-0.2,1.4,0.3,1.5,1c0.1,0.7-0.3,1.4-1,1.5c-0.7,0.2-1.5,0.3-2.2,0.5C594.1,450.4,594.1,450.5,594,450.5z M461.5,450.4
			c-0.1,0-0.2,0-0.3,0c-0.7-0.2-1.5-0.3-2.2-0.5c-0.7-0.2-1.1-0.8-1-1.5c0.2-0.7,0.8-1.1,1.5-1c0.7,0.2,1.5,0.3,2.2,0.5
			c0.7,0.1,1.1,0.8,1,1.5C462.6,450,462.1,450.4,461.5,450.4z M601.3,448.8c-0.6,0-1.1-0.4-1.2-1c-0.2-0.7,0.3-1.4,0.9-1.5
			c0.7-0.2,1.5-0.4,2.2-0.5c0.7-0.2,1.4,0.2,1.5,0.9c0.2,0.7-0.2,1.4-0.9,1.5c-0.7,0.2-1.5,0.4-2.2,0.5
			C601.5,448.8,601.4,448.8,601.3,448.8z M454.2,448.7c-0.1,0-0.2,0-0.3,0c-0.7-0.2-1.5-0.4-2.2-0.5c-0.7-0.2-1.1-0.9-0.9-1.5
			c0.2-0.7,0.9-1.1,1.5-0.9c0.7,0.2,1.5,0.4,2.2,0.5c0.7,0.2,1.1,0.9,0.9,1.5C455.2,448.4,454.7,448.7,454.2,448.7z M608.6,447
			c-0.6,0-1.1-0.4-1.2-0.9c-0.2-0.7,0.2-1.4,0.9-1.5c0.7-0.2,1.4-0.4,2.2-0.6c0.7-0.2,1.4,0.2,1.6,0.9c0.2,0.7-0.2,1.4-0.9,1.6
			c-0.7,0.2-1.5,0.4-2.2,0.6C608.9,447,608.7,447,608.6,447z M446.9,446.8c-0.1,0-0.2,0-0.3,0c-0.7-0.2-1.5-0.4-2.2-0.6
			c-0.7-0.2-1.1-0.9-0.9-1.6c0.2-0.7,0.9-1.1,1.6-0.9c0.7,0.2,1.4,0.4,2.2,0.6c0.7,0.2,1.1,0.9,0.9,1.6
			C447.9,446.5,447.4,446.8,446.9,446.8z M615.9,444.9c-0.5,0-1-0.4-1.2-0.9c-0.2-0.7,0.2-1.4,0.9-1.6c0.7-0.2,1.4-0.4,2.2-0.6
			c0.7-0.2,1.4,0.2,1.6,0.8c0.2,0.7-0.2,1.4-0.8,1.6c-0.7,0.2-1.5,0.4-2.2,0.7C616.1,444.9,616,444.9,615.9,444.9z M439.6,444.8
			c-0.1,0-0.2,0-0.4-0.1c-0.7-0.2-1.4-0.4-2.2-0.7c-0.7-0.2-1-0.9-0.8-1.6c0.2-0.7,0.9-1,1.6-0.8c0.7,0.2,1.4,0.4,2.2,0.7
			c0.7,0.2,1,0.9,0.8,1.6C440.7,444.4,440.2,444.8,439.6,444.8z M623.1,442.7c-0.5,0-1-0.3-1.2-0.9c-0.2-0.7,0.1-1.4,0.8-1.6
			c0.7-0.2,1.4-0.5,2.1-0.7c0.7-0.2,1.4,0.1,1.6,0.8c0.2,0.7-0.1,1.4-0.8,1.6c-0.7,0.2-1.4,0.5-2.2,0.7
			C623.4,442.7,623.2,442.7,623.1,442.7z M432.5,442.5c-0.1,0-0.3,0-0.4-0.1c-0.7-0.2-1.4-0.5-2.1-0.7c-0.7-0.2-1-0.9-0.8-1.6
			c0.2-0.7,0.9-1,1.6-0.8c0.7,0.2,1.4,0.5,2.1,0.7c0.7,0.2,1,0.9,0.8,1.6C433.5,442.2,433,442.5,432.5,442.5z M630.2,440.3
			c-0.5,0-1-0.3-1.2-0.8c-0.2-0.7,0.1-1.4,0.8-1.6c0.7-0.2,1.4-0.5,2.1-0.8c0.7-0.2,1.4,0.1,1.6,0.8c0.2,0.7-0.1,1.4-0.8,1.6
			c-0.7,0.3-1.4,0.5-2.1,0.8C630.5,440.3,630.4,440.3,630.2,440.3z M425.3,440c-0.1,0-0.3,0-0.4-0.1c-0.7-0.3-1.4-0.5-2.1-0.8
			c-0.7-0.2-1-1-0.7-1.6c0.2-0.7,1-1,1.6-0.7c0.7,0.3,1.4,0.5,2.1,0.8c0.7,0.2,1,1,0.8,1.6C426.3,439.7,425.9,440,425.3,440z
			 M637.3,437.7c-0.5,0-1-0.3-1.2-0.8c-0.2-0.7,0.1-1.4,0.7-1.6c0.7-0.3,1.4-0.5,2.1-0.8c0.6-0.3,1.4,0.1,1.6,0.7
			c0.3,0.6-0.1,1.4-0.7,1.6c-0.7,0.3-1.4,0.6-2.1,0.8C637.6,437.7,637.5,437.7,637.3,437.7z M418.3,437.4c-0.2,0-0.3,0-0.5-0.1
			c-0.5-0.2-1.1-0.4-1.6-0.6l-0.5-0.2c-0.6-0.3-1-1-0.7-1.6c0.3-0.6,1-1,1.6-0.7l0.5,0.2c0.5,0.2,1.1,0.4,1.6,0.6
			c0.7,0.3,1,1,0.7,1.6C419.3,437.1,418.8,437.4,418.3,437.4z M175.3,436.1c-0.1,0-0.2,0-0.3,0c-0.2-0.1-0.4-0.1-0.7-0.2
			c-0.7-0.2-1.1-0.9-0.9-1.5c0.2-0.7,0.9-1.1,1.5-0.9c0.2,0.1,0.4,0.1,0.6,0.2c0.7,0.2,1.1,0.8,0.9,1.5
			C176.4,435.7,175.9,436.1,175.3,436.1z M644.3,434.9c-0.5,0-1-0.3-1.2-0.8c-0.3-0.6,0-1.4,0.7-1.7c0.7-0.3,1.4-0.6,2.1-0.9
			c0.6-0.3,1.4,0,1.7,0.7c0.3,0.6,0,1.4-0.7,1.7c-0.7,0.3-1.4,0.6-2.1,0.9C644.6,434.9,644.5,434.9,644.3,434.9z M411.3,434.6
			c-0.2,0-0.3,0-0.5-0.1c-0.7-0.3-1.4-0.6-2.1-0.9c-0.6-0.3-1-1-0.7-1.7c0.3-0.6,1-1,1.7-0.7c0.7,0.3,1.4,0.6,2.1,0.9
			c0.6,0.3,1,1,0.7,1.6C412.3,434.3,411.8,434.6,411.3,434.6z M169.6,434.4c-0.1,0-0.3,0-0.4-0.1c-0.7-0.2-1.4-0.5-2.2-0.8
			c-0.7-0.2-1-1-0.7-1.6c0.2-0.7,1-1,1.6-0.7c0.7,0.3,1.4,0.5,2.1,0.8c0.7,0.2,1,0.9,0.8,1.6C170.6,434.1,170.1,434.4,169.6,434.4z
			 M651.3,431.9c-0.5,0-0.9-0.3-1.2-0.7c-0.3-0.6,0-1.4,0.6-1.7c0.7-0.3,1.4-0.6,2.1-0.9c0.6-0.3,1.4,0,1.7,0.6
			c0.3,0.6,0,1.4-0.6,1.7c-0.7,0.3-1.4,0.6-2.1,0.9C651.6,431.9,651.4,431.9,651.3,431.9z M404.3,431.7c-0.2,0-0.3,0-0.5-0.1
			c-0.7-0.3-1.4-0.6-2.1-0.9c-0.6-0.3-0.9-1-0.7-1.7c0.3-0.6,1-0.9,1.7-0.7c0.7,0.3,1.4,0.6,2.1,0.9c0.6,0.3,0.9,1,0.7,1.7
			C405.3,431.4,404.8,431.7,404.3,431.7z M162.6,431.5c-0.2,0-0.4,0-0.6-0.1c-0.7-0.3-1.4-0.7-2.1-1.1c-0.6-0.3-0.8-1.1-0.5-1.7
			c0.3-0.6,1.1-0.8,1.7-0.5c0.6,0.3,1.3,0.7,2,1c0.6,0.3,0.9,1.1,0.6,1.7C163.5,431.3,163.1,431.5,162.6,431.5z M658.1,428.7
			c-0.5,0-0.9-0.3-1.1-0.7c-0.3-0.6,0-1.4,0.6-1.7c0.7-0.3,1.4-0.7,2-1c0.6-0.3,1.4,0,1.7,0.6c0.3,0.6,0,1.4-0.6,1.7
			c-0.7,0.3-1.4,0.7-2,1C658.5,428.7,658.3,428.7,658.1,428.7z M397.4,428.7c-0.2,0-0.3,0-0.5-0.1l-2.1-0.9c-0.6-0.3-0.9-1-0.7-1.7
			c0.3-0.6,1-0.9,1.7-0.7l2.1,0.9c0.6,0.3,0.9,1,0.7,1.7C398.4,428.4,397.9,428.7,397.4,428.7z M156.1,427.7c-0.3,0-0.5-0.1-0.7-0.2
			c-0.7-0.5-1.3-0.9-1.9-1.4c-0.5-0.4-0.6-1.2-0.2-1.8c0.4-0.5,1.2-0.6,1.8-0.2c0.5,0.4,1.1,0.9,1.7,1.3c0.6,0.4,0.7,1.2,0.3,1.8
			C156.9,427.5,156.5,427.7,156.1,427.7z M390.5,425.7c-0.2,0-0.3,0-0.5-0.1l-2.1-0.9c-0.6-0.3-0.9-1-0.6-1.7c0.3-0.6,1-0.9,1.7-0.6
			l2.1,0.9c0.6,0.3,0.9,1,0.6,1.7C391.5,425.4,391,425.7,390.5,425.7z M664.9,425.4c-0.5,0-0.9-0.2-1.1-0.7
			c-0.3-0.6-0.1-1.4,0.5-1.7c0.7-0.3,1.3-0.7,2-1c0.6-0.3,1.4-0.1,1.7,0.5c0.3,0.6,0.1,1.4-0.5,1.7c-0.7,0.4-1.3,0.7-2,1.1
			C665.3,425.3,665.1,425.4,664.9,425.4z M383.6,422.6c-0.2,0-0.3,0-0.5-0.1l-2.1-0.9c-0.6-0.3-0.9-1-0.6-1.7c0.3-0.6,1-0.9,1.7-0.6
			l2.1,0.9c0.6,0.3,0.9,1,0.6,1.7C384.6,422.4,384.1,422.6,383.6,422.6z M150.6,422.6c-0.4,0-0.7-0.2-1-0.5c-0.5-0.6-1-1.3-1.4-2
			c-0.4-0.6-0.2-1.4,0.4-1.7c0.6-0.4,1.4-0.2,1.7,0.4c0.3,0.6,0.8,1.2,1.2,1.7c0.4,0.5,0.3,1.3-0.2,1.8
			C151.2,422.5,150.9,422.6,150.6,422.6z M671.5,421.8c-0.4,0-0.9-0.2-1.1-0.7c-0.3-0.6-0.1-1.4,0.5-1.7c0.7-0.4,1.3-0.7,2-1.1
			c0.6-0.3,1.4-0.1,1.7,0.5c0.3,0.6,0.1,1.4-0.5,1.7c-0.7,0.4-1.3,0.7-2,1.1C671.9,421.8,671.7,421.8,671.5,421.8z M376.8,419.5
			c-0.2,0-0.3,0-0.5-0.1l-2.1-0.9c-0.6-0.3-0.9-1-0.6-1.7c0.3-0.6,1-0.9,1.7-0.6l2.1,0.9c0.6,0.3,0.9,1,0.6,1.7
			C377.7,419.3,377.2,419.5,376.8,419.5z M678.1,418.1c-0.4,0-0.9-0.2-1.1-0.6c-0.4-0.6-0.2-1.4,0.4-1.7c0.6-0.4,1.3-0.8,1.9-1.2
			c0.6-0.4,1.4-0.2,1.7,0.4c0.4,0.6,0.2,1.4-0.4,1.7c-0.6,0.4-1.3,0.8-1.9,1.2C678.5,418,678.3,418.1,678.1,418.1z M369.9,416.4
			c-0.2,0-0.4,0-0.5-0.1l-2.1-0.9c-0.6-0.3-0.9-1-0.6-1.7c0.3-0.6,1-0.9,1.7-0.6l2.1,0.9c0.6,0.3,0.9,1,0.6,1.7
			C370.8,416.2,370.4,416.4,369.9,416.4z M147.5,415.9c-0.6,0-1.2-0.5-1.2-1.1c-0.1-0.6-0.1-1.3-0.1-1.9c0-0.2,0-0.4,0-0.6
			c0-0.7,0.6-1.2,1.3-1.2c0.7,0,1.2,0.6,1.2,1.3c0,0.2,0,0.3,0,0.5c0,0.5,0,1,0.1,1.5c0.1,0.7-0.4,1.3-1.1,1.4
			C147.6,415.9,147.5,415.9,147.5,415.9z M684.5,414.1c-0.4,0-0.8-0.2-1.1-0.6c-0.4-0.6-0.2-1.4,0.4-1.7c0.6-0.4,1.3-0.8,1.9-1.2
			c0.6-0.4,1.4-0.2,1.7,0.4c0.4,0.6,0.2,1.4-0.4,1.7c-0.6,0.4-1.3,0.8-1.9,1.2C684.9,414.1,684.7,414.1,684.5,414.1z M363,413.3
			c-0.2,0-0.3,0-0.5-0.1l-2.1-0.9c-0.6-0.3-0.9-1-0.6-1.7c0.3-0.6,1-0.9,1.7-0.6l2.1,0.9c0.6,0.3,0.9,1,0.6,1.7
			C364,413.1,363.5,413.3,363,413.3z M356.1,410.3c-0.2,0-0.3,0-0.5-0.1l-2.1-0.9c-0.6-0.3-0.9-1-0.6-1.7c0.3-0.6,1-0.9,1.7-0.6
			l2.1,0.9c0.6,0.3,0.9,1,0.6,1.7C357.1,410,356.6,410.3,356.1,410.3z M690.8,410c-0.4,0-0.8-0.2-1-0.5c-0.4-0.6-0.2-1.4,0.3-1.8
			c0.6-0.4,1.2-0.8,1.8-1.3c0.6-0.4,1.4-0.3,1.8,0.3c0.4,0.6,0.3,1.4-0.3,1.8c-0.6,0.4-1.2,0.9-1.9,1.3
			C691.2,409.9,691,410,690.8,410z M148.7,408.5c-0.2,0-0.4,0-0.5-0.1c-0.6-0.3-0.9-1-0.6-1.7c0.3-0.7,0.7-1.4,1.2-2.1
			c0.4-0.6,1.2-0.8,1.7-0.4c0.6,0.4,0.8,1.2,0.4,1.7c-0.4,0.6-0.7,1.2-1,1.8C149.6,408.3,149.2,408.5,148.7,408.5z M349.2,407.2
			c-0.2,0-0.3,0-0.5-0.1l-2.1-0.9c-0.6-0.3-0.9-1-0.7-1.7c0.3-0.6,1-0.9,1.7-0.7l2.1,0.9c0.6,0.3,0.9,1,0.7,1.7
			C350.2,406.9,349.7,407.2,349.2,407.2z M696.9,405.6c-0.4,0-0.8-0.2-1-0.5c-0.4-0.6-0.3-1.4,0.3-1.8c0.6-0.4,1.2-0.9,1.8-1.3
			c0.6-0.4,1.3-0.3,1.8,0.2c0.4,0.6,0.3,1.3-0.2,1.8c-0.6,0.5-1.2,0.9-1.8,1.4C697.4,405.5,697.1,405.6,696.9,405.6z M342.3,404.2
			c-0.2,0-0.3,0-0.5-0.1l-2.1-0.9c-0.6-0.3-0.9-1-0.7-1.7c0.3-0.6,1-0.9,1.7-0.7l2.1,0.9c0.6,0.3,0.9,1,0.7,1.7
			C343.3,403.9,342.8,404.2,342.3,404.2z M153.1,402.4c-0.3,0-0.6-0.1-0.9-0.4c-0.5-0.5-0.5-1.3,0-1.8c0.4-0.4,0.8-0.8,1.2-1.2
			c0.1-0.1,0.3-0.3,0.4-0.4c0.5-0.5,1.3-0.4,1.8,0.1c0.5,0.5,0.4,1.3-0.1,1.8c-0.1,0.1-0.3,0.3-0.4,0.4c-0.4,0.4-0.8,0.8-1.2,1.1
			C153.7,402.3,153.4,402.4,153.1,402.4z M335.4,401.3c-0.2,0-0.3,0-0.5-0.1c-0.7-0.3-1.4-0.6-2.1-0.9c-0.6-0.3-1-1-0.7-1.6
			c0.3-0.6,1-1,1.6-0.7c0.7,0.3,1.4,0.6,2.1,0.9c0.6,0.3,0.9,1,0.7,1.7C336.3,401,335.9,401.3,335.4,401.3z M702.8,401
			c-0.4,0-0.7-0.2-1-0.5c-0.4-0.5-0.3-1.3,0.2-1.8c0.6-0.5,1.2-0.9,1.7-1.4c0.5-0.4,1.3-0.4,1.8,0.2c0.4,0.5,0.4,1.3-0.2,1.8
			c-0.6,0.5-1.2,1-1.8,1.4C703.4,401,703.1,401,702.8,401z M328.4,398.5c-0.2,0-0.3,0-0.5-0.1c-0.7-0.3-1.4-0.6-2.1-0.8
			c-0.6-0.3-1-1-0.7-1.6c0.3-0.6,1-1,1.6-0.7c0.7,0.3,1.4,0.6,2.1,0.8c0.6,0.3,1,1,0.7,1.6C329.4,398.2,328.9,398.5,328.4,398.5z
			 M158.8,397.6c-0.4,0-0.8-0.2-1-0.5c-0.4-0.6-0.3-1.4,0.3-1.8c0.6-0.4,1.3-0.9,1.9-1.3c0.6-0.4,1.4-0.2,1.7,0.4
			c0.4,0.6,0.2,1.4-0.4,1.7c-0.6,0.4-1.2,0.8-1.8,1.2C159.3,397.5,159,397.6,158.8,397.6z M708.6,396.3c-0.4,0-0.7-0.1-1-0.4
			c-0.5-0.5-0.4-1.3,0.1-1.8c0.6-0.5,1.1-1,1.7-1.5c0.5-0.5,1.3-0.4,1.8,0.1c0.5,0.5,0.4,1.3-0.1,1.8c-0.6,0.5-1.1,1-1.7,1.5
			C709.2,396.2,708.9,396.3,708.6,396.3z M321.4,395.7c-0.2,0-0.3,0-0.5-0.1c-0.7-0.3-1.4-0.5-2.1-0.8c-0.7-0.2-1-1-0.7-1.6
			c0.2-0.7,1-1,1.6-0.7c0.7,0.3,1.4,0.5,2.1,0.8c0.7,0.2,1,1,0.7,1.6C322.4,395.4,321.9,395.7,321.4,395.7z M165.3,393.7
			c-0.5,0-0.9-0.3-1.1-0.7c-0.3-0.6-0.1-1.4,0.6-1.7c0.7-0.3,1.4-0.7,2.1-1c0.6-0.3,1.4,0,1.7,0.6c0.3,0.6,0,1.4-0.6,1.7
			c-0.7,0.3-1.3,0.6-2,1C165.6,393.7,165.5,393.7,165.3,393.7z M314.3,393.1c-0.1,0-0.3,0-0.4-0.1c-0.7-0.3-1.4-0.5-2.1-0.8
			c-0.7-0.2-1-1-0.8-1.6c0.2-0.7,1-1,1.6-0.8c0.7,0.3,1.4,0.5,2.1,0.8c0.7,0.2,1,1,0.8,1.6C315.3,392.8,314.8,393.1,314.3,393.1z
			 M714.2,391.2c-0.3,0-0.7-0.1-0.9-0.4c-0.5-0.5-0.5-1.3,0.1-1.8c0.5-0.5,1.1-1,1.6-1.5c0.5-0.5,1.3-0.5,1.8,0
			c0.5,0.5,0.5,1.3,0,1.8c-0.5,0.5-1.1,1-1.7,1.6C714.8,391.1,714.5,391.2,714.2,391.2z M172.2,390.7c-0.5,0-1-0.3-1.2-0.8
			c-0.2-0.7,0.1-1.4,0.7-1.6c0.7-0.3,1.4-0.5,2.2-0.8c0.7-0.2,1.4,0.1,1.6,0.8c0.2,0.7-0.1,1.4-0.8,1.6c-0.7,0.2-1.4,0.5-2.1,0.8
			C172.5,390.6,172.3,390.7,172.2,390.7z M307.2,390.6c-0.1,0-0.3,0-0.4-0.1c-0.7-0.2-1.4-0.5-2.1-0.7c-0.7-0.2-1-0.9-0.8-1.6
			c0.2-0.7,0.9-1,1.6-0.8c0.7,0.2,1.4,0.5,2.1,0.7c0.7,0.2,1,0.9,0.8,1.6C308.2,390.2,307.7,390.6,307.2,390.6z M179.3,388.2
			c-0.5,0-1-0.4-1.2-0.9c-0.2-0.7,0.2-1.4,0.8-1.6c0.7-0.2,1.5-0.4,2.2-0.6c0.7-0.2,1.4,0.2,1.6,0.9c0.2,0.7-0.2,1.4-0.9,1.6
			c-0.7,0.2-1.4,0.4-2.1,0.6C179.5,388.2,179.4,388.2,179.3,388.2z M300.1,388.2c-0.1,0-0.3,0-0.4-0.1c-0.7-0.2-1.4-0.5-2.1-0.7
			c-0.7-0.2-1-0.9-0.8-1.6c0.2-0.7,0.9-1,1.6-0.8c0.7,0.2,1.4,0.4,2.2,0.7c0.7,0.2,1,0.9,0.8,1.6
			C301.1,387.9,300.6,388.2,300.1,388.2z M186.6,386.2c-0.6,0-1.1-0.4-1.2-0.9c-0.2-0.7,0.2-1.4,0.9-1.5c0.7-0.2,1.5-0.4,2.2-0.6
			c0.7-0.2,1.4,0.2,1.5,0.9c0.2,0.7-0.2,1.4-0.9,1.5c-0.7,0.2-1.5,0.4-2.2,0.6C186.8,386.2,186.7,386.2,186.6,386.2z M292.8,386
			c-0.1,0-0.2,0-0.4-0.1c-0.7-0.2-1.4-0.4-2.2-0.6c-0.7-0.2-1.1-0.9-0.9-1.6c0.2-0.7,0.9-1.1,1.6-0.9c0.7,0.2,1.5,0.4,2.2,0.6
			c0.7,0.2,1.1,0.9,0.9,1.6C293.9,385.7,293.4,386,292.8,386z M719.6,386c-0.3,0-0.6-0.1-0.9-0.4c-0.5-0.5-0.5-1.3,0-1.8
			c0.5-0.5,1-1.1,1.6-1.6c0.5-0.5,1.3-0.5,1.8,0c0.5,0.5,0.5,1.3,0,1.8c-0.5,0.5-1.1,1.1-1.6,1.6C720.3,385.8,719.9,386,719.6,386z
			 M193.9,384.4c-0.6,0-1.1-0.4-1.2-1c-0.2-0.7,0.3-1.4,0.9-1.5l2.2-0.5c0.7-0.2,1.4,0.3,1.5,0.9c0.2,0.7-0.3,1.4-0.9,1.5l-2.2,0.5
			C194.1,384.4,194,384.4,193.9,384.4z M285.6,384.1c-0.1,0-0.2,0-0.3,0c-0.7-0.2-1.5-0.4-2.2-0.5c-0.7-0.2-1.1-0.8-0.9-1.5
			c0.2-0.7,0.8-1.1,1.5-0.9c0.7,0.2,1.5,0.4,2.2,0.5c0.7,0.2,1.1,0.9,0.9,1.5C286.7,383.7,286.1,384.1,285.6,384.1z M201.2,382.7
			c-0.6,0-1.1-0.4-1.2-1c-0.2-0.7,0.3-1.4,0.9-1.5c0.7-0.2,1.5-0.3,2.2-0.5c0.7-0.1,1.4,0.3,1.5,1c0.1,0.7-0.3,1.4-1,1.5
			c-0.7,0.2-1.5,0.3-2.2,0.5C201.4,382.7,201.3,382.7,201.2,382.7z M278.2,382.4c-0.1,0-0.2,0-0.3,0c-0.7-0.2-1.5-0.3-2.2-0.4
			c-0.7-0.1-1.1-0.8-1-1.5c0.1-0.7,0.8-1.1,1.5-1c0.7,0.1,1.5,0.3,2.2,0.5c0.7,0.1,1.1,0.8,1,1.5C279.3,382,278.8,382.4,278.2,382.4
			z M208.6,381.1c-0.6,0-1.1-0.4-1.2-1c-0.1-0.7,0.3-1.3,1-1.5c0.7-0.1,1.5-0.3,2.2-0.4c0.7-0.1,1.3,0.3,1.5,1
			c0.1,0.7-0.3,1.3-1,1.5c-0.7,0.1-1.5,0.3-2.2,0.4C208.7,381.1,208.7,381.1,208.6,381.1z M270.8,381c-0.1,0-0.1,0-0.2,0
			c-0.7-0.1-1.5-0.2-2.2-0.4c-0.7-0.1-1.2-0.8-1.1-1.4c0.1-0.7,0.8-1.2,1.4-1.1c0.7,0.1,1.5,0.2,2.2,0.4c0.7,0.1,1.2,0.8,1,1.5
			C272,380.5,271.4,381,270.8,381z M724.8,380.5c-0.3,0-0.6-0.1-0.8-0.3c-0.5-0.5-0.6-1.3-0.1-1.8c0.5-0.6,1-1.1,1.5-1.7
			c0.5-0.5,1.3-0.6,1.8-0.1c0.5,0.5,0.6,1.3,0.1,1.8c-0.5,0.6-1,1.1-1.5,1.7C725.4,380.3,725.1,380.5,724.8,380.5z M216,379.9
			c-0.6,0-1.2-0.5-1.3-1.1c-0.1-0.7,0.4-1.3,1.1-1.4c0.8-0.1,1.5-0.2,2.3-0.3c0.7-0.1,1.3,0.4,1.4,1.1c0.1,0.7-0.4,1.3-1.1,1.4
			c-0.7,0.1-1.5,0.2-2.2,0.3C216.1,379.9,216.1,379.9,216,379.9z M263.4,379.9c-0.1,0-0.1,0-0.2,0c-0.7-0.1-1.5-0.2-2.2-0.3
			c-0.7-0.1-1.2-0.7-1.1-1.4c0.1-0.7,0.7-1.2,1.4-1.1c0.8,0.1,1.5,0.2,2.3,0.3c0.7,0.1,1.2,0.7,1.1,1.4
			C264.5,379.4,264,379.9,263.4,379.9z M223.5,379.1c-0.6,0-1.2-0.5-1.3-1.1c-0.1-0.7,0.4-1.3,1.1-1.4c0.8-0.1,1.5-0.1,2.3-0.2
			c0.7-0.1,1.3,0.5,1.4,1.2c0.1,0.7-0.5,1.3-1.2,1.4c-0.7,0.1-1.5,0.1-2.2,0.2C223.6,379.1,223.6,379.1,223.5,379.1z M255.9,379.1
			c0,0-0.1,0-0.1,0c-0.7-0.1-1.5-0.1-2.2-0.2c-0.7-0.1-1.2-0.7-1.2-1.4c0.1-0.7,0.7-1.2,1.4-1.2c0.8,0.1,1.5,0.1,2.3,0.2
			c0.7,0.1,1.2,0.7,1.1,1.4C257.1,378.6,256.5,379.1,255.9,379.1z M248.4,378.5C248.3,378.5,248.3,378.5,248.4,378.5
			c-0.8,0-1.6-0.1-2.3-0.1c-0.7,0-1.2-0.6-1.2-1.3c0-0.7,0.6-1.2,1.3-1.2c0.8,0,1.5,0.1,2.3,0.1c0.7,0,1.2,0.6,1.2,1.3
			C249.6,378,249,378.5,248.4,378.5z M231,378.5c-0.7,0-1.2-0.5-1.3-1.2c0-0.7,0.5-1.3,1.2-1.3c0.8,0,1.5-0.1,2.3-0.1
			c0.7,0,1.3,0.5,1.3,1.2c0,0.7-0.5,1.3-1.2,1.3C232.6,378.5,231.8,378.5,231,378.5C231.1,378.5,231,378.5,231,378.5z M240.8,378
			C240.8,378,240.8,378,240.8,378c-0.4,0-0.8,0-1.2,0l-1,0c0,0,0,0,0,0c-0.7,0-1.3-0.4-1.3-1.1c0-0.7,0.6-1.2,1.3-1.2l1.1,0
			c0.4,0,0.8,0,1.2,0c0.7,0,1.3,0.4,1.3,1.1C242.1,377.6,241.5,378,240.8,378z M729.6,374.7c-0.3,0-0.6-0.1-0.8-0.3
			c-0.5-0.4-0.6-1.2-0.2-1.8c0.5-0.6,0.9-1.2,1.4-1.7c0.4-0.5,1.2-0.6,1.8-0.2c0.5,0.4,0.6,1.2,0.2,1.8c-0.5,0.6-0.9,1.2-1.4,1.8
			C730.4,374.6,730,374.7,729.6,374.7z M734.2,368.8c-0.3,0-0.5-0.1-0.7-0.2c-0.6-0.4-0.7-1.2-0.3-1.8c0.4-0.6,0.9-1.2,1.3-1.8
			c0.4-0.6,1.2-0.7,1.8-0.3c0.6,0.4,0.7,1.2,0.3,1.8c-0.4,0.6-0.9,1.2-1.3,1.8C735,368.6,734.6,368.8,734.2,368.8z M738.5,362.6
			c-0.2,0-0.5-0.1-0.7-0.2c-0.6-0.4-0.8-1.2-0.4-1.7c0.4-0.6,0.8-1.3,1.2-1.9c0.4-0.6,1.1-0.8,1.7-0.4c0.6,0.4,0.8,1.1,0.4,1.7
			c-0.4,0.6-0.8,1.3-1.2,1.9C739.3,362.4,738.9,362.6,738.5,362.6z M742.4,356.2c-0.2,0-0.4-0.1-0.6-0.2c-0.6-0.3-0.8-1.1-0.5-1.7
			c0.4-0.6,0.7-1.3,1.1-1.9c0.3-0.6,1.1-0.8,1.7-0.5c0.6,0.3,0.8,1.1,0.5,1.7c-0.4,0.7-0.7,1.3-1.1,2
			C743.3,355.9,742.8,356.2,742.4,356.2z M745.9,349.5c-0.2,0-0.4,0-0.6-0.1c-0.6-0.3-0.9-1.1-0.6-1.7c0.3-0.7,0.7-1.3,1-2
			c0.3-0.6,1.1-0.9,1.7-0.6c0.6,0.3,0.9,1.1,0.6,1.7c-0.3,0.7-0.7,1.4-1,2.1C746.9,349.3,746.4,349.5,745.9,349.5z M749.1,342.7
			c-0.2,0-0.3,0-0.5-0.1c-0.6-0.3-0.9-1-0.7-1.7c0.3-0.7,0.6-1.4,0.9-2.1c0.3-0.6,1-1,1.6-0.7c0.6,0.3,1,1,0.7,1.6
			c-0.3,0.7-0.6,1.4-0.9,2.1C750.1,342.4,749.6,342.7,749.1,342.7z M751.8,335.6c-0.1,0-0.3,0-0.4-0.1c-0.7-0.2-1-1-0.8-1.6
			c0.2-0.7,0.5-1.4,0.7-2.1c0.2-0.7,0.9-1,1.6-0.8c0.7,0.2,1,0.9,0.8,1.6c-0.2,0.7-0.5,1.4-0.7,2.2
			C752.8,335.3,752.3,335.6,751.8,335.6z M754.1,328.5c-0.1,0-0.2,0-0.3,0c-0.7-0.2-1.1-0.9-0.9-1.6c0.2-0.7,0.4-1.4,0.6-2.2
			c0.2-0.7,0.9-1.1,1.5-0.9c0.7,0.2,1.1,0.9,0.9,1.5c-0.2,0.7-0.4,1.5-0.6,2.2C755.2,328.1,754.7,328.5,754.1,328.5z M755.9,321.1
			c-0.1,0-0.2,0-0.3,0c-0.7-0.1-1.1-0.8-1-1.5c0.2-0.7,0.3-1.5,0.5-2.2c0.1-0.7,0.8-1.1,1.5-1c0.7,0.1,1.1,0.8,1,1.5
			c-0.1,0.7-0.3,1.5-0.5,2.2C757,320.7,756.5,321.1,755.9,321.1z M757.3,313.7c-0.1,0-0.1,0-0.2,0c-0.7-0.1-1.2-0.8-1.1-1.4
			c0.1-0.7,0.2-1.5,0.3-2.2c0.1-0.7,0.7-1.2,1.4-1.1c0.7,0.1,1.2,0.7,1.1,1.4c-0.1,0.8-0.2,1.5-0.3,2.3
			C758.5,313.3,757.9,313.7,757.3,313.7z M758.2,306.3c0,0-0.1,0-0.1,0c-0.7-0.1-1.2-0.7-1.1-1.4c0.1-0.7,0.1-1.5,0.2-2.2
			c0.1-0.7,0.7-1.2,1.4-1.2c0.7,0.1,1.2,0.7,1.2,1.4c-0.1,0.8-0.1,1.5-0.2,2.3C759.4,305.8,758.9,306.3,758.2,306.3z M758.7,298.8
			C758.7,298.8,758.7,298.8,758.7,298.8c-0.7,0-1.3-0.6-1.3-1.3c0-0.7,0-1.6,0-2.3c0-0.7,0.6-1.4,1.3-1.4c0,0,0,0,0,0
			c0.7,0,1.3,0.7,1.3,1.4c0,0.8,0,1.6,0,2.3C759.9,298.2,759.4,298.8,758.7,298.8z M758.7,290.9c-0.7,0-1.2-0.4-1.3-1.1
			c0-0.7-0.1-1.4-0.1-2.2c0-0.7,0.5-1.3,1.2-1.3c0.7,0,1.3,0.5,1.3,1.2c0,0.8,0.1,1.4,0.1,2.1C760,290.4,759.4,290.9,758.7,290.9
			C758.7,290.9,758.7,290.9,758.7,290.9z M758.2,283.7c-0.6,0-1.2-0.5-1.3-1.1c-0.1-0.7-0.2-1.5-0.2-2.2c-0.1-0.7,0.4-1.3,1.1-1.4
			c0.7-0.1,1.3,0.4,1.4,1.1c0.1,0.8,0.2,1.5,0.2,2.3c0.1,0.7-0.4,1.3-1.1,1.4C758.2,283.7,758.2,283.7,758.2,283.7z M757.2,276.2
			c-0.6,0-1.1-0.4-1.2-1.1c-0.1-0.7-0.2-1.5-0.4-2.2c-0.1-0.7,0.3-1.3,1-1.5c0.7-0.1,1.3,0.3,1.5,1c0.1,0.7,0.3,1.5,0.4,2.3
			c0.1,0.7-0.4,1.3-1,1.5C757.3,276.2,757.3,276.2,757.2,276.2z M755.7,268.8c-0.6,0-1.1-0.4-1.2-1c-0.2-0.7-0.3-1.4-0.5-2.2
			c-0.2-0.7,0.2-1.4,0.9-1.5c0.7-0.2,1.4,0.2,1.5,0.9c0.2,0.7,0.4,1.5,0.5,2.2c0.2,0.7-0.3,1.4-1,1.5
			C755.9,268.8,755.8,268.8,755.7,268.8z M753.9,261.6c-0.5,0-1.1-0.4-1.2-0.9c-0.2-0.7-0.4-1.4-0.6-2.1c-0.2-0.7,0.2-1.4,0.8-1.6
			c0.7-0.2,1.4,0.2,1.6,0.8c0.2,0.7,0.4,1.5,0.7,2.2c0.2,0.7-0.2,1.4-0.9,1.6C754.1,261.5,754,261.6,753.9,261.6z M751.6,254.4
			c-0.5,0-1-0.3-1.2-0.8c-0.2-0.7-0.5-1.4-0.8-2.1c-0.2-0.7,0.1-1.4,0.7-1.6c0.7-0.2,1.4,0.1,1.6,0.7c0.3,0.7,0.5,1.4,0.8,2.1
			c0.2,0.7-0.1,1.4-0.8,1.6C751.9,254.4,751.7,254.4,751.6,254.4z M748.9,247.3c-0.5,0-1-0.3-1.2-0.8c-0.3-0.7-0.6-1.4-0.9-2.1
			c-0.3-0.6,0-1.4,0.7-1.7c0.6-0.3,1.4,0,1.7,0.7c0.3,0.7,0.6,1.4,0.9,2.1c0.3,0.6,0,1.4-0.7,1.6
			C749.2,247.3,749.1,247.3,748.9,247.3z M745.8,240.4c-0.5,0-0.9-0.3-1.1-0.7c-0.3-0.7-0.6-1.4-1-2c-0.3-0.6,0-1.4,0.6-1.7
			c0.6-0.3,1.4,0,1.7,0.6c0.3,0.7,0.7,1.4,1,2.1c0.3,0.6,0,1.4-0.6,1.7C746.2,240.4,746,240.4,745.8,240.4z M742.5,233.7
			c-0.5,0-0.9-0.2-1.1-0.7c-0.4-0.7-0.7-1.3-1.1-2c-0.3-0.6-0.1-1.4,0.5-1.7c0.6-0.3,1.4-0.1,1.7,0.5c0.4,0.7,0.7,1.3,1.1,2
			c0.3,0.6,0.1,1.4-0.5,1.7C742.9,233.6,742.7,233.7,742.5,233.7z M738.8,227.1c-0.4,0-0.9-0.2-1.1-0.6c-0.4-0.6-0.8-1.3-1.1-1.9
			c-0.4-0.6-0.2-1.4,0.4-1.7c0.6-0.4,1.4-0.2,1.7,0.4c0.4,0.7,0.8,1.3,1.2,2c0.4,0.6,0.2,1.4-0.5,1.7
			C739.2,227,739,227.1,738.8,227.1z M734.8,220.7c-0.4,0-0.8-0.2-1.1-0.6c-0.4-0.6-0.8-1.3-1.2-1.9c-0.4-0.6-0.2-1.4,0.4-1.7
			c0.6-0.4,1.4-0.2,1.7,0.4c0.4,0.6,0.8,1.3,1.2,1.9c0.4,0.6,0.2,1.4-0.4,1.7C735.3,220.6,735.1,220.7,734.8,220.7z M730.7,214.4
			c-0.4,0-0.8-0.2-1-0.5c-0.4-0.6-0.9-1.2-1.3-1.8c-0.4-0.6-0.3-1.4,0.3-1.8c0.6-0.4,1.4-0.3,1.8,0.3c0.4,0.6,0.9,1.2,1.3,1.9
			c0.4,0.6,0.3,1.4-0.3,1.8C731.2,214.3,730.9,214.4,730.7,214.4z M726.2,208.3c-0.4,0-0.8-0.2-1-0.5c-0.4-0.6-0.9-1.2-1.4-1.8
			c-0.4-0.6-0.3-1.3,0.2-1.8c0.6-0.4,1.3-0.3,1.8,0.2c0.5,0.6,0.9,1.2,1.4,1.8c0.4,0.6,0.3,1.4-0.3,1.8
			C726.8,208.2,726.5,208.3,726.2,208.3z M721.6,202.3c-0.4,0-0.7-0.2-1-0.5c-0.5-0.6-0.9-1.2-1.4-1.8c-0.4-0.5-0.4-1.3,0.2-1.8
			c0.5-0.4,1.3-0.4,1.8,0.2c0.5,0.6,1,1.2,1.4,1.8c0.4,0.5,0.3,1.3-0.2,1.8C722.2,202.2,721.9,202.3,721.6,202.3z M716.9,196.5
			c-0.4,0-0.7-0.2-1-0.4c-0.5-0.6-1-1.1-1.5-1.7c-0.5-0.5-0.4-1.3,0.1-1.8c0.5-0.5,1.3-0.4,1.8,0.1c0.5,0.6,1,1.2,1.5,1.7
			c0.5,0.5,0.4,1.3-0.1,1.8C717.4,196.4,717.1,196.5,716.9,196.5z M711.9,190.8c-0.3,0-0.7-0.1-0.9-0.4c-0.5-0.6-1-1.1-1.5-1.7
			c-0.5-0.5-0.4-1.3,0.1-1.8c0.5-0.5,1.3-0.4,1.8,0.1c0.5,0.6,1,1.1,1.5,1.7c0.5,0.5,0.4,1.3-0.1,1.8
			C712.5,190.7,712.2,190.8,711.9,190.8z M706.8,185.2c-0.3,0-0.7-0.1-0.9-0.4c-0.5-0.5-1-1.1-1.6-1.6c-0.5-0.5-0.5-1.3,0-1.8
			c0.5-0.5,1.3-0.5,1.8,0c0.5,0.5,1,1.1,1.6,1.7c0.5,0.5,0.5,1.3-0.1,1.8C707.4,185.1,707.1,185.2,706.8,185.2z M701.5,179.8
			c-0.3,0-0.7-0.1-0.9-0.4c-0.5-0.5-1.1-1.1-1.6-1.6c-0.5-0.5-0.5-1.3,0-1.8c0.5-0.5,1.3-0.5,1.8,0c0.5,0.5,1.1,1.1,1.6,1.6
			c0.5,0.5,0.5,1.3,0,1.8C702.2,179.7,701.9,179.8,701.5,179.8z M696.2,174.5c-0.3,0-0.6-0.1-0.9-0.4c-0.5-0.5-1.1-1-1.6-1.6
			c-0.5-0.5-0.5-1.3,0-1.8c0.5-0.5,1.3-0.5,1.8,0c0.5,0.5,1.1,1.1,1.6,1.6c0.5,0.5,0.5,1.3,0,1.8
			C696.8,174.3,696.5,174.5,696.2,174.5z M690.7,169.3c-0.3,0-0.6-0.1-0.9-0.3c-0.5-0.5-1.1-1-1.6-1.5c-0.5-0.5-0.5-1.3-0.1-1.8
			c0.5-0.5,1.3-0.5,1.8-0.1c0.6,0.5,1.1,1,1.7,1.5c0.5,0.5,0.5,1.3,0.1,1.8C691.4,169.1,691.1,169.3,690.7,169.3z M685.2,164.2
			c-0.3,0-0.6-0.1-0.8-0.3c-0.6-0.5-1.1-1-1.7-1.5c-0.5-0.5-0.6-1.3-0.1-1.8c0.5-0.5,1.3-0.6,1.8-0.1c0.6,0.5,1.1,1,1.7,1.5
			c0.5,0.5,0.6,1.3,0.1,1.8C685.9,164,685.5,164.2,685.2,164.2z M679.6,159.2c-0.3,0-0.6-0.1-0.8-0.3c-0.6-0.5-1.1-1-1.7-1.5
			c-0.5-0.5-0.6-1.3-0.1-1.8c0.5-0.5,1.3-0.6,1.8-0.1c0.6,0.5,1.1,1,1.7,1.5c0.5,0.5,0.6,1.3,0.1,1.8
			C680.3,159,679.9,159.2,679.6,159.2z M673.9,154.2c-0.3,0-0.6-0.1-0.8-0.3c-0.6-0.5-1.1-1-1.7-1.5c-0.5-0.4-0.6-1.2-0.2-1.8
			c0.4-0.5,1.2-0.6,1.8-0.2c0.6,0.5,1.1,1,1.7,1.5c0.5,0.5,0.6,1.2,0.1,1.8C674.6,154.1,674.2,154.2,673.9,154.2z M668.1,149.4
			c-0.3,0-0.6-0.1-0.8-0.3c-0.6-0.5-1.2-1-1.7-1.4c-0.5-0.4-0.6-1.2-0.2-1.8c0.4-0.5,1.2-0.6,1.8-0.2c0.6,0.5,1.2,1,1.7,1.4
			c0.5,0.4,0.6,1.2,0.2,1.8C668.8,149.3,668.5,149.4,668.1,149.4z M662.3,144.7c-0.3,0-0.6-0.1-0.8-0.3l-1.8-1.4
			c-0.5-0.4-0.6-1.2-0.2-1.8c0.4-0.5,1.2-0.6,1.8-0.2l1.8,1.4c0.5,0.4,0.6,1.2,0.2,1.8C663,144.5,662.6,144.7,662.3,144.7z
			 M656.4,140c-0.3,0-0.5-0.1-0.8-0.3l-1.8-1.4c-0.5-0.4-0.6-1.2-0.2-1.8c0.4-0.5,1.2-0.6,1.8-0.2l1.8,1.4c0.5,0.4,0.6,1.2,0.2,1.8
			C657.1,139.8,656.7,140,656.4,140z M650.4,135.3c-0.3,0-0.5-0.1-0.8-0.3l-1.8-1.4c-0.6-0.4-0.7-1.2-0.2-1.8
			c0.4-0.6,1.2-0.7,1.8-0.2l1.8,1.4c0.6,0.4,0.7,1.2,0.2,1.8C651.2,135.1,650.8,135.3,650.4,135.3z M644.4,130.7
			c-0.3,0-0.5-0.1-0.8-0.3l-1.8-1.4c-0.6-0.4-0.7-1.2-0.2-1.8c0.4-0.6,1.2-0.7,1.8-0.2l1.8,1.4c0.6,0.4,0.7,1.2,0.2,1.8
			C645.2,130.6,644.8,130.7,644.4,130.7z M638.4,126.2c-0.3,0-0.5-0.1-0.8-0.3l-1.8-1.4c-0.6-0.4-0.7-1.2-0.3-1.8
			c0.4-0.6,1.2-0.7,1.8-0.3l1.8,1.4c0.6,0.4,0.7,1.2,0.3,1.8C639.2,126,638.8,126.2,638.4,126.2z M632.3,121.7
			c-0.3,0-0.5-0.1-0.7-0.2l-1.8-1.3c-0.6-0.4-0.7-1.2-0.3-1.8c0.4-0.6,1.2-0.7,1.8-0.3l1.8,1.3c0.6,0.4,0.7,1.2,0.3,1.8
			C633.1,121.5,632.7,121.7,632.3,121.7z"/>
	</g>
	<g>
		<polygon class="st12" points="628.6,95.5 622,114 612.3,101.5 		"/>
		<path class="st10" d="M549.3,55l34.2,61.7c0.7,1.2,1.8,2,3.1,2.4c1.3,0.3,2.7,0.2,3.9-0.5l60.7-36.7c0.7-0.4,1.1-1.2,0.9-2
			c-0.1-0.8-0.7-1.4-1.5-1.6L549.3,55z"/>
		<polygon class="st12" points="628.6,95.5 549.3,55 618.9,101.4 617.2,106.6 		"/>
		<polygon class="st12" points="613,104.9 622,114 618.9,101.4 		"/>
	</g>
</g>
<g>
	<g>
		<path class="st10" d="M284.5,447.2v53.7c0.7,5.6-2.1,7.6-4.8,7.6H122.4c-5.3-0.1-10.6-0.2-15.9-0.3c-3.5-0.1-7-0.1-10.5-0.2
			c-2.3,0-4.1-2.3-4.1-5l0.3-51.2c0-4.2,2.1-7.6,4.7-7.6l182.8-2.5C285.2,441.6,284.2,445,284.5,447.2z"/>
		<g>
			<ellipse class="st13" cx="128.9" cy="475.8" rx="28.4" ry="29.2"/>
			<g>
				<path class="st5" d="M139.2,464.8c0,5.2-4.2,10.9-9.5,10.9c-5.2,0-9.5-5.7-9.5-10.9c0-5.2,4.2-9,9.5-9
					C134.9,455.8,139.2,459.5,139.2,464.8z"/>
				<path class="st5" d="M117.9,495.8h23.1c2.4,0,4.6-1.6,5.3-3.9l1.2-3.9c0.9-2.9-0.6-5.9-3.4-7c-9.4-3.4-19.2-3-29.1,0.3
					c-2.8,0.9-4.3,3.9-3.6,6.8l1,3.5C113.2,494.1,115.4,495.8,117.9,495.8z"/>
			</g>
		</g>
		<g>
			<path class="st5" d="M276.9,472.6c0,3-1.7,5.5-3.7,5.5H163.5c-2.1,0-3.7-2.5-3.7-5.5l0,0c0-3,1.7-5.5,3.7-5.5h109.7
				C275.3,467.1,276.9,469.6,276.9,472.6L276.9,472.6z"/>
			<path class="st5" d="M280.7,490.3c0,2.8-1.9,5-4.1,5h-53c-2.3,0-4.1-2.2-4.1-5l0,0c0-2.8,1.9-5,4.1-5h53
				C278.8,485.3,280.7,487.5,280.7,490.3L280.7,490.3z"/>
			<path class="st5" d="M218.3,490.3c0,2.8-1.9,5-4.1,5h-53c-2.3,0-4.1-2.2-4.1-5l0,0c0-2.8,1.9-5,4.1-5h53
				C216.5,485.3,218.3,487.5,218.3,490.3L218.3,490.3z"/>
		</g>
		<path class="st14" d="M267.6,456.3c0,2.9-3.1,5.2-7,5.2h-85.3c-3.9,0-7-2.3-7-5.2v-0.4c0-2.9,3.1-5.2,7-5.2h85.3
			c3.9,0,7,2.3,7,5.2V456.3z"/>
	</g>
</g>
</svg>
